<?xml version="1.0" standalone="no"?>
<!DOCTYPE svg PUBLIC "-//W3C//DTD SVG 1.1//EN" "http://www.w3.org/Graphics/SVG/1.1/DTD/svg11.dtd">
<svg class="icon" viewBox="0 0 1024 1024" version="1.1" xmlns="http://www.w3.org/2000/svg">
  <path d="M832 1024H192c-106.048 0-192-86.016-192-192V192a192 192 0 0 1 192-192h640c105.984 0 192 85.952 192 192v640c0 105.984-86.016 192-192 192z m64-832a64 64 0 0 0-64-64H192C156.672 128 128 156.672 128 192v640a64 64 0 0 0 64 64h640c35.392 0 64-28.608 64-64V192z m-128 384v64c0 105.984-86.016 192-192 192v-128c35.392 0 64-28.608 64-64v-64a64 64 0 1 0 0-128v-64a64 64 0 0 0-64-64V192c105.984 0 192 85.952 192 192v64a64 64 0 1 1 0 128z m-512 64v-64a64.021333 64.021333 0 0 1 0-128v-64a192 192 0 0 1 192-192v128c-35.328 0-64 28.672-64 64v64a64.021333 64.021333 0 0 0 0 128v64a64 64 0 0 0 64 64v128c-106.048 0-192-86.016-192-192z" />
</svg>