<?xml version="1.0" standalone="no"?>
<!DOCTYPE svg PUBLIC "-//W3C//DTD SVG 1.1//EN" "http://www.w3.org/Graphics/SVG/1.1/DTD/svg11.dtd">
<svg class="icon" viewBox="0 0 1024 1024" version="1.1" xmlns="http://www.w3.org/2000/svg">
  <path d="M512 217.10427a33.048659 33.048659 0 0 0-7.118173-33.048659 92.027805 92.027805 0 0 0-47.285005-15.253228 17.286991 17.286991 0 0 1-15.761668-16.270109 26.438928 26.438928 0 0 1 0-7.118173v-9.660377q33.5571 3.559086 66.097319 5.084409t60.504468 0h56.945383q33.5571 0 63.555114-5.084409a94.061569 94.061569 0 0 1 0 16.77855 14.744786 14.744786 0 0 1-15.761668 16.77855 107.789474 107.789474 0 0 0-50.844092 15.761669 53.894737 53.894737 0 0 0-18.812314 33.5571L498.780536 791.642502a31.014896 31.014896 0 0 0 7.626614 32.540219 112.365442 112.365442 0 0 0 50.844091 15.761668 16.270109 16.270109 0 0 1 14.744787 16.77855 96.095333 96.095333 0 0 1 0 17.795432q-33.5571-3.559086-68.131083-5.084409H384.889772q-33.048659 0-63.046674 5.084409a96.095333 96.095333 0 0 1 0-17.795432 14.236346 14.236346 0 0 1 13.219464-15.761668 131.686197 131.686197 0 0 0 50.844091-16.270109 50.844091 50.844091 0 0 0 20.337637-33.04866z" />
</svg>