<?xml version="1.0" standalone="no"?>
<!DOCTYPE svg PUBLIC "-//W3C//DTD SVG 1.1//EN" "http://www.w3.org/Graphics/SVG/1.1/DTD/svg11.dtd">
<svg class="icon" viewBox="0 0 1024 1024" version="1.1" xmlns="http://www.w3.org/2000/svg">
  <path d="M912 700.2c0 39.2-13.9 72.4-41.6 99.5l-72.1 71.5C771.2 898.4 738 912 698.8 912c-39.6 0-72.9-13.9-100-41.6L497.9 768.9c-27.1-27.1-40.7-60.3-40.7-99.5 0-40.2 14.3-74.3 43.1-102.5l-43.1-43.1c-28.1 28.8-62.1 43.1-102 43.1-39.2 0-72.6-13.7-100-41.1l-102-102.1c-27.4-27.4-41.1-60.8-41.1-100s13.9-72.4 41.6-99.5l72.1-71.5c27.1-27.1 60.3-40.7 99.5-40.7 39.5 0 72.9 13.9 100 41.6L526.2 255c27.1 27.1 40.7 60.3 40.7 99.5 0 40.2-14.4 74.3-43.1 102.5l43.1 43.1C595 471.3 629 457 668.9 457c39.2 0 72.6 13.7 100 41.1l102 102c27.4 27.6 41.1 61 41.1 100.1zM473.2 354.7c0-13.1-4.5-24.2-13.7-33.3L358.6 219.9c-9.2-9.2-20.3-13.7-33.3-13.7-12.8 0-23.8 4.4-33.3 13.2L219.9 291c-9.2 9.2-13.7 20.1-13.7 32.9 0 13.1 4.5 24.2 13.7 33.3l102 102c8.9 8.9 19.9 13.2 33.3 13.2 13.7 0 25.5-5.1 35.3-15.2-1-1-4.1-4-9.3-9.1-5.3-5.1-8.8-8.6-10.5-10.5s-4.2-5.1-7.3-9.3c-3.1-4.2-5.3-8.5-6.4-12.5-1.1-4.1-1.8-8.6-1.8-13.5 0-13.1 4.5-24.2 13.7-33.3 9.2-9.2 20.3-13.7 33.3-13.7 4.9 0 9.4 0.6 13.5 1.8s8.2 3.3 12.5 6.4c4.2 3.1 7.3 5.6 9.3 7.3 2 1.8 5.5 5.4 10.5 10.5 5.1 5.3 8 8.4 9.1 9.3 10.8-10.2 16.1-22.2 16.1-35.9z m344.7 345.5c0-13.1-4.5-24.2-13.7-33.3l-102-102c-9.2-9.2-20.3-13.7-33.3-13.7-13.7 0-25.5 5.3-35.3 15.7 1 1 4.1 4 9.3 9.1 5.3 5.1 8.8 8.6 10.5 10.5 1.8 2 4.2 5.1 7.3 9.3 3.1 4.2 5.3 8.5 6.4 12.5 1.1 4.1 1.8 8.6 1.8 13.5 0 13.1-4.5 24.2-13.7 33.3-9.2 9.2-20.3 13.7-33.3 13.7-4.9 0-9.4-0.5-13.5-1.8-4.1-1.1-8.2-3.3-12.5-6.4-4.2-3.1-7.3-5.6-9.3-7.3s-5.5-5.3-10.5-10.5-8-8.4-9.1-9.3c-10.8 10.1-16.2 22.1-16.2 35.8 0 13.1 4.5 24.2 13.7 33.3L665.4 804c8.9 8.9 19.9 13.2 33.3 13.2 13.1 0 24.2-4.2 33.3-12.8l72.1-71.5c9.2-8.9 13.8-19.9 13.8-32.7z" />
</svg>