<?xml version="1.0" standalone="no"?>
<!DOCTYPE svg PUBLIC "-//W3C//DTD SVG 1.1//EN" "http://www.w3.org/Graphics/SVG/1.1/DTD/svg11.dtd">
<svg class="icon" viewBox="0 0 1024 1024" version="1.1" xmlns="http://www.w3.org/2000/svg">
  <path d="M359.467726 156.09136h508.440914a50.844091 50.844091 0 0 1 0 101.688183h-508.440914a50.844091 50.844091 0 0 1 0-101.688183z m0 305.064549h508.440914a50.844091 50.844091 0 0 1 0 101.688182h-508.440914a50.844091 50.844091 0 0 1 0-101.688182z m0 305.064548h508.440914a50.844091 50.844091 0 0 1 0 101.688183h-508.440914a50.844091 50.844091 0 0 1 0-101.688183zM123.042701 159.142006v-23.896723a156.599801 156.599801 0 0 0 23.388282 0 33.048659 33.048659 0 0 0 17.286991-9.660377 31.014896 31.014896 0 0 0 7.118173-12.711023 29.489573 29.489573 0 0 0 0-7.118173H203.376365v177.445879h-38.133068V159.142006z m0 394.041708a101.688183 101.688183 0 0 1 35.590864-38.133069 262.355511 262.355511 0 0 0 31.523337-24.913604 37.116187 37.116187 0 0 0 11.1857-25.930487 28.472691 28.472691 0 0 0-6.101291-18.812314 22.3714 22.3714 0 0 0-18.303873-7.626613 21.862959 21.862959 0 0 0-24.405164 11.694141 59.487587 59.487587 0 0 0-4.067527 21.862959h-33.04866a86.943396 86.943396 0 0 1 8.135055-37.116187 50.844091 50.844091 0 0 1 50.844091-26.947368 63.555114 63.555114 0 0 1 45.251242 15.761668 54.911619 54.911619 0 0 1 16.77855 41.692155 56.945382 56.945382 0 0 1-11.694141 35.590864 118.975174 118.975174 0 0 1-25.930487 22.879841l-14.236345 10.168818-18.303873 13.727905a40.166832 40.166832 0 0 0-8.135055 9.660377h78.299901v31.014896H113.382324a84.401192 84.401192 0 0 1 8.135054-35.082423z m25.422046 285.235353a40.675273 40.675273 0 0 0 3.559086 17.795432 23.896723 23.896723 0 0 0 23.388282 13.219463 25.930487 25.930487 0 0 0 16.270109-5.084409 26.438928 26.438928 0 0 0 7.626614-20.337636 23.388282 23.388282 0 0 0-14.236345-23.896723 73.215492 73.215492 0 0 0-25.422046-6.609732v-25.422046a67.114201 67.114201 0 0 0 23.896723-3.559086 20.846077 20.846077 0 0 0 11.694141-21.86296 23.388282 23.388282 0 0 0-6.101291-16.77855 21.862959 21.862959 0 0 0-16.77855-6.609732 21.354518 21.354518 0 0 0-18.303873 8.135055 33.5571 33.5571 0 0 0-5.59285 21.354518h-33.04866a88.97716 88.97716 0 0 1 4.575969-25.422045 57.453823 57.453823 0 0 1 13.727904-19.320755 47.793446 47.793446 0 0 1 16.27011-9.660377 71.690169 71.690169 0 0 1 23.388282-2.542205 62.538232 62.538232 0 0 1 41.692154 13.219464 44.234359 44.234359 0 0 1 15.761669 35.590864 39.658391 39.658391 0 0 1-9.660378 26.947368 32.031778 32.031778 0 0 1-12.202582 9.151937 25.422046 25.422046 0 0 1 13.727905 8.135054 44.234359 44.234359 0 0 1 13.727905 34.065541 57.453823 57.453823 0 0 1-15.761668 40.166833 60.504469 60.504469 0 0 1-46.776565 17.286991 56.945382 56.945382 0 0 1-50.844091-24.913605 74.232373 74.232373 0 0 1-8.643495-34.573982z" />
</svg>