<?xml version="1.0" standalone="no"?>
<!DOCTYPE svg PUBLIC "-//W3C//DTD SVG 1.1//EN" "http://www.w3.org/Graphics/SVG/1.1/DTD/svg11.dtd">
<svg class="icon" viewBox="0 0 1024 1024" version="1.1" xmlns="http://www.w3.org/2000/svg">
  <path d="M986.584615 512c0 261.907692-212.676923 474.584615-474.584615 474.584615S37.415385 773.907692 37.415385 512 250.092308 37.415385 512 37.415385 986.584615 250.092308 986.584615 512zM360.369231 311.138462c-47.261538 0-84.676923 37.415385-84.676923 84.676923s37.415385 84.676923 84.676923 84.676923 84.676923-37.415385 84.676923-84.676923-37.415385-84.676923-84.676923-84.676923z m305.230769 0c-47.261538 0-84.676923 37.415385-84.676923 84.676923s37.415385 84.676923 84.676923 84.676923 84.676923-37.415385 84.676923-84.676923-37.415385-84.676923-84.676923-84.676923z m-3.938462 328.861538c-39.384615 35.446154-92.553846 55.138462-149.661538 55.138462-55.138462 0-106.338462-19.692308-147.692308-53.169231l-17.723077-15.753846c-5.907692-3.938462-9.846154-5.907692-21.661538-5.907693-21.661538 0-37.415385 17.723077-37.415385 37.415385 0 9.846154 3.938462 19.692308 11.815385 27.569231l13.784615 11.815384c53.169231 47.261538 124.061538 74.830769 198.892308 74.83077 76.8 0 147.692308-29.538462 200.861538-76.8l9.846154-9.846154c7.876923-7.876923 11.815385-17.723077 11.815385-27.569231 0-21.661538-17.723077-37.415385-37.415385-37.415385-9.846154 0-17.723077 3.938462-23.630769 7.876923l-11.815385 11.815385z" />
</svg>