<?xml version="1.0" standalone="no"?>
<!DOCTYPE svg PUBLIC "-//W3C//DTD SVG 1.1//EN" "http://www.w3.org/Graphics/SVG/1.1/DTD/svg11.dtd">
<svg class="icon" viewBox="0 0 1024 1024" version="1.1" xmlns="http://www.w3.org/2000/svg">
  <path d="M292.3 624c2.9 2.9 4.3 6.6 4.3 11s-1.4 8.2-4.3 11c-2.9 2.9-6.6 4.3-11 4.3H127.4c-4.4 0-8.2-1.4-11-4.3-2.9-2.9-4.3-6.6-4.3-11s1.4-8.2 4.3-11c2.9-2.9 6.6-4.3 11-4.3h153.9c4.4 0 8.2 1.4 11 4.3z m315.4-275.4l-114.9 8.6-131.3-131.8c-9-9-19.9-13.4-32.7-13.4-12.5 0-23.4 4.3-32.7 12.9l-70.7 70.2c-9 9-13.4 19.7-13.4 32.3 0 12.8 4.4 23.8 13.4 32.7l131.7 131.7-8.7 115.4c-11.2-6.8-20.2-13.4-26.9-20.2L160.1 425.4c-26.9-27.6-40.3-60.3-40.3-98.1 0-38.4 13.7-71 40.8-97.6l70.7-70.2c26.6-26.6 59.2-39.9 97.6-39.9 38.7 0 71.5 13.7 98.1 40.8l160.5 161.1c6.7 6.9 13.5 15.9 20.2 27.1zM323 723L200 846.2c-3.5 2.9-7.2 4.3-11 4.3s-7.6-1.4-11-4.3c-2.9-3.2-4.3-6.9-4.3-11s1.4-7.9 4.3-11l123-123.1c3.2-2.9 6.9-4.3 11-4.3s7.9 1.4 11 4.3c2.9 3.2 4.3 6.9 4.3 11 0.1 4-1.3 7.8-4.3 10.9z m81.3 19.7v153.9c0 4.4-1.4 8.2-4.3 11-2.9 2.9-6.6 4.3-11 4.3s-8.2-1.4-11-4.3c-2.9-2.9-4.3-6.6-4.3-11V742.7c0-4.4 1.4-8.2 4.3-11 2.9-2.9 6.6-4.3 11-4.3s8.2 1.4 11 4.3c2.9 2.9 4.3 6.6 4.3 11z m500-46.1c0 38.4-13.7 71-40.8 97.6l-70.7 70.2c-26.6 26.6-59.2 39.9-97.6 39.9-38.8 0-71.5-13.7-98.1-40.8L436.6 702.4c-6.8-6.8-13.4-15.7-20.2-26.9l114.9-8.7 131.2 131.7c8.7 8.7 19.5 13 32.7 13.2s24.1-4 32.7-12.7l70.7-70.2c9-9 13.4-19.7 13.4-32.3 0-12.8-4.4-23.8-13.4-32.7L666.8 531.7l8.7-114.9c11.2 6.8 20.2 13.4 26.9 20.2l161.5 161.5c27 27.7 40.4 60.3 40.4 98.1zM650.4 127.4v153.9c0 4.4-1.4 8.2-4.3 11-2.9 2.9-6.6 4.3-11 4.3s-8.2-1.4-11-4.3c-2.9-2.9-4.3-6.6-4.3-11V127.4c0-4.4 1.4-8.2 4.3-11 2.9-2.9 6.6-4.3 11-4.3s8.2 1.4 11 4.3c2.9 2.9 4.3 6.5 4.3 11zM846.2 200L723 323.1c-3.5 2.9-7.2 4.3-11 4.3s-7.6-1.4-11-4.3c-2.9-3.2-4.3-6.9-4.3-11s1.4-7.9 4.3-11L824 178c3.2-2.9 6.9-4.3 11-4.3s7.9 1.4 11 4.3c2.9 3.2 4.3 6.9 4.3 11 0.1 4.1-1.3 7.8-4.1 11z m61.5 177.9c2.9 2.9 4.3 6.6 4.3 11s-1.4 8.2-4.3 11c-2.9 2.9-6.6 4.3-11 4.3h-154c-4.4 0-8.2-1.4-11-4.3-2.9-2.9-4.3-6.6-4.3-11s1.4-8.2 4.3-11c2.9-2.9 6.6-4.3 11-4.3h153.9c4.5 0 8.2 1.4 11.1 4.3z" />
</svg>